<?xml version="1.0" standalone="no"?>
<svg
    viewBox="0 0 359.43994140625 96.21200561523438"
    xmlns="http://www.w3.org/2000/svg"
    width="131"
    height="35"
>
    <g fill="#a44241" transform="matrix(1,0,0,1,12.5,-4.394001007080078)">
        <path d="M51.726,60.487l-4.633,4.634l1.115,1.115l4.635-4.636h8.938l12.197-12.2c0.002-0.003,0.003-0.005,0.006-0.007l0.522-0.522  l0.021-0.579l0.594-0.032l4.013-4.014c0.18-0.181,0.348-0.368,0.504-0.562c0.197-0.108,0.332-0.294,0.382-0.52  c1.699-2.546,1.579-5.955-0.362-8.383l0.034-0.033l-0.555-0.554c-0.002-0.001-0.002-0.003-0.003-0.004  c-0.002-0.001-0.003-0.002-0.005-0.004l-0.553-0.554l-0.034,0.033c-1.256-1.007-2.802-1.557-4.435-1.557  c-1.899,0-3.686,0.739-5.03,2.081l-6.796,6.801c0,0,0,0-0.002,0.001l-3.757,3.76l0.027,0.491l-0.473-0.05l-1.992,1.991  c0,0.001-0.001,0.002-0.003,0.003l-4.357,4.357V60.487z M61.128,60.023H54.42l2.581-2.582l6.688,0.021L61.128,60.023z M63.653,48.56  l-0.023-6.687l4.517-4.518l0.021,6.688L63.653,48.56z M64.842,49.602l6.685,0.021l-6.267,6.269l-6.686-0.021L64.842,49.602z   M74.432,46.718l-1.425,0.08l-0.048,1.251l-6.546-0.021l3.099-3.098c0.003-0.004,0.006-0.007,0.011-0.011l1.156-1.157l6.686,0.022  L74.432,46.718z M78.757,42.212l-6.505-0.021l6.28-6.281C79.919,37.763,79.996,40.289,78.757,42.212z M74.108,33.687  c1.211,0,2.358,0.393,3.309,1.106l-7.676,7.678l-0.023-6.688l0.476-0.476C71.239,34.262,72.631,33.687,74.108,33.687z M58.662,46.84  l1.566,0.164l-0.091-1.636l1.921-1.922l0.021,6.686l-4.624,4.625l-0.021-6.689L58.662,46.84z M55.861,49.64l0.023,6.689  l-2.582,2.581v-6.712L55.861,49.64z M49.831,52.927h-25.26V51.35h25.26V52.927z M49.831,56.681h-25.26v-1.577h25.26V56.681z   M49.831,60.439h-25.26v-1.577h25.26V60.439z M44.938,64.193H24.571v-1.577h20.367V64.193z M96.414,78.626V23.718  c0-2.388-1.937-4.324-4.324-4.324H12.908c-2.387,0-4.322,1.937-4.322,4.324v54.908H2.5c0,4.286,3.475,6.98,7.76,6.98h84.479  c4.284,0,7.761-2.694,7.761-6.98H96.414z M58.412,81.282H46.587c-1.466,0-2.655-1.189-2.655-2.656h17.135  C61.066,80.093,59.879,81.282,58.412,81.282z M91.01,73.475H13.989v-48.93H91.01V73.475z"></path>
    </g>
    <g fill="#335b71" transform="matrix(3.9999992370606923,0,0,3.9999992370606923,123.5200026473994,-1.9999923706069218)">
        <path d="M12.18 12.18 c0.7 0.44 1.2 1.06 1.52 1.84 c0.2 0.46 0.28 1 0.28 1.58 c0 1.94 -1.06 3.28 -3.06 3.92 c-0.64 0.22 -1.38 0.32 -2.22 0.32 l-6.38 0 c-0.38 0 -0.7 -0.32 -0.7 -0.7 l0 -1.44 c0 -0.4 0.32 -0.72 0.7 -0.72 l6.54 0 c0.76 0 1.34 -0.14 1.72 -0.42 c0.32 -0.26 0.48 -0.6 0.48 -1.08 s-0.16 -0.84 -0.5 -1.14 c-0.42 -0.36 -1.04 -0.54 -1.86 -0.54 l-6.38 0 c-0.38 0 -0.7 -0.32 -0.7 -0.72 l0 -1.38 c0 -0.38 0.32 -0.7 0.7 -0.7 l6.02 0 c1.28 0 1.68 -0.5 1.88 -0.88 c0.1 -0.2 0.14 -0.42 0.14 -0.66 c0 -0.26 -0.04 -0.48 -0.1 -0.66 s-0.16 -0.32 -0.28 -0.44 c-0.32 -0.36 -0.8 -0.5 -1.46 -0.5 l-6.2 0 c-0.38 0 -0.7 -0.32 -0.7 -0.72 l0 -1.44 c0 -0.38 0.32 -0.7 0.7 -0.7 l6.02 0 c1.64 0 2.92 0.46 3.82 1.4 c0.74 0.74 1.14 1.7 1.14 2.86 c0 1.22 -0.38 2.2 -1.12 2.92 z M25.86 16.84 c0.4 0 0.7 0.32 0.7 0.7 l0 1.44 c0 0.38 -0.3 0.7 -0.7 0.7 l-8.74 0 c-0.38 0 -0.7 -0.32 -0.7 -0.7 l0 -13.28 c0 -0.38 0.32 -0.7 0.7 -0.7 l1.5 0 c0.38 0 0.7 0.32 0.7 0.7 l0 11.14 l6.54 0 z M35.1 5 c2.16 0 3.98 0.74 5.38 2.2 c1.36 1.42 2.06 3.2 2.06 5.3 s-0.7 3.88 -2.06 5.3 c-1.4 1.46 -3.22 2.2 -5.38 2.2 s-3.98 -0.74 -5.38 -2.2 c-1.36 -1.42 -2.06 -3.2 -2.06 -5.3 s0.7 -3.88 2.06 -5.3 c1.4 -1.46 3.22 -2.2 5.38 -2.2 z M35.1 17.14 c1.4 0 2.48 -0.44 3.32 -1.32 c0.82 -0.86 1.22 -1.96 1.22 -3.32 s-0.4 -2.44 -1.22 -3.32 c-0.84 -0.88 -1.92 -1.32 -3.32 -1.32 s-2.48 0.44 -3.32 1.32 c-0.82 0.88 -1.22 1.96 -1.22 3.32 s0.4 2.46 1.22 3.32 c0.84 0.88 1.92 1.32 3.32 1.32 z M58.96000000000001 12 l0 0.08 c0.02 0.14 0.02 0.28 0.02 0.42 c0 0.32 -0.02 0.64 -0.06 1.02 c-0.2 1.68 -0.88 3.12 -2 4.28 c-1.4 1.46 -3.22 2.2 -5.38 2.2 s-3.98 -0.74 -5.38 -2.2 c-1.36 -1.42 -2.06 -3.2 -2.06 -5.3 s0.7 -3.88 2.06 -5.3 c1.4 -1.46 3.22 -2.2 5.38 -2.2 s3.98 0.74 5.38 2.2 c0.54 0.56 0.98 1.2 1.32 1.9 c0.06 0.1 0.1 0.24 0.1 0.38 c0 0.38 -0.3 0.68 -0.7 0.68 l0 0 l-1.68 0 c-0.24 0 -0.46 -0.12 -0.58 -0.32 c-0.16 -0.24 -0.32 -0.46 -0.52 -0.66 c-0.84 -0.88 -1.92 -1.32 -3.32 -1.32 s-2.48 0.44 -3.32 1.32 c-0.82 0.88 -1.22 1.96 -1.22 3.32 s0.4 2.46 1.22 3.32 c0.84 0.88 1.92 1.32 3.32 1.32 s2.48 -0.44 3.32 -1.32 c0.46 -0.48 0.78 -1.04 0.98 -1.68 l-4.18 0 c-0.38 0 -0.7 -0.32 -0.7 -0.7 l0 -1.4 c0 -0.38 0.32 -0.7 0.7 -0.7 l6.6 0 c0.38 0 0.68 0.28 0.7 0.66 z"></path>
    </g>
</svg>
